HIERARCHY
ROOT Hips
{
 OFFSET 0.000000 0.000000 0.000000
 CHANNELS 6 Xposition Yposition Zposition Yrotation Xrotation Zrotation
 JOINT Chest
 {
  OFFSET 0.000000 9.585900 0.002600
  CHANNELS 3 Yrotation Xrotation Zrotation
  JOINT Chest2
  {
   OFFSET 0.000000 9.601200 -0.005300
   CHANNELS 3 Yrotation Xrotation Zrotation
   JOINT Chest3
   {
    OFFSET 0.000000 9.561800 0.000000
    CHANNELS 3 Yrotation Xrotation Zrotation
    JOINT Chest4
    {
     OFFSET 0.000000 9.552100 0.000000
     CHANNELS 3 Yrotation Xrotation Zrotation
     JOINT Neck
     {
      OFFSET 0.000000 14.453000 0.000000
      CHANNELS 3 Yrotation Xrotation Zrotation
      JOINT Head
      {
       OFFSET 0.000000 8.936500 -0.011300
       CHANNELS 3 Yrotation Xrotation Zrotation
       End Site
       {
        OFFSET 0.000000 17.073600 -0.006000
       }
      }
     }
     JOINT RightCollar
     {
      OFFSET -2.921100 9.558500 0.000000
      CHANNELS 3 Yrotation Xrotation Zrotation
      JOINT RightShoulder
      {
       OFFSET -13.519700 0.000000 0.000000
       CHANNELS 3 Yrotation Xrotation Zrotation
       JOINT RightElbow
       {
        OFFSET 0.000000 -29.696600 0.000000
        CHANNELS 3 Yrotation Xrotation Zrotation
        JOINT RightWrist
        {
         OFFSET 0.000000 -24.004700 0.000000
         CHANNELS 3 Yrotation Xrotation Zrotation
         End Site
         {
          OFFSET 0.000000 -17.728500 0.000000
         }
        }
       }
      }
     }
     JOINT LeftCollar
     {
      OFFSET 2.921100 9.558500 0.000000
      CHANNELS 3 Yrotation Xrotation Zrotation
      JOINT LeftShoulder
      {
       OFFSET 13.519700 0.000000 0.000000
       CHANNELS 3 Yrotation Xrotation Zrotation
       JOINT LeftElbow
       {
        OFFSET 0.000000 -29.696600 0.000000
        CHANNELS 3 Yrotation Xrotation Zrotation
        JOINT LeftWrist
        {
         OFFSET 0.000000 -24.004700 0.000000
         CHANNELS 3 Yrotation Xrotation Zrotation
         End Site
         {
          OFFSET 0.000000 -17.728500 0.000000
         }
        }
       }
      }
     }
    }
   }
  }
 }
 JOINT RightHip
 {
  OFFSET -7.771700 -0.012900 -0.001300
  CHANNELS 3 Yrotation Xrotation Zrotation
  JOINT RightKnee
  {
   OFFSET 0.000000 -40.869800 0.001200
   CHANNELS 3 Yrotation Xrotation Zrotation
   JOINT RightAnkle
   {
    OFFSET 0.000000 -39.717900 0.002100
    CHANNELS 3 Yrotation Xrotation Zrotation
    JOINT RightToe
    {
     OFFSET 0.000000 -4.965400 11.033500
     CHANNELS 3 Yrotation Xrotation Zrotation
     End Site
     {
      OFFSET 0.000000 -1.423100 5.872300
     }
    }
   }
  }
 }
 JOINT LeftHip
 {
  OFFSET 7.771700 -0.012900 -0.001300
  CHANNELS 3 Yrotation Xrotation Zrotation
  JOINT LeftKnee
  {
   OFFSET 0.000000 -40.869800 0.001200
   CHANNELS 3 Yrotation Xrotation Zrotation
   JOINT LeftAnkle
   {
    OFFSET 0.000000 -39.717900 0.002100
    CHANNELS 3 Yrotation Xrotation Zrotation
    JOINT LeftToe
    {
     OFFSET 0.000000 -4.965400 11.033500
     CHANNELS 3 Yrotation Xrotation Zrotation
     End Site
     {
      OFFSET 0.000000 -1.423100 5.872300
     }
    }
   }
  }
 }
}
MOTION
Frames: 12
Frame Time: 0.008333
-196.089077 57.379419 -62.602268 156.872660 -11.992437 0.391680 4.753912 8.463518 0.855728 0.266190 0.491525 -0.016931 0.440540 0.891208 0.024863 4.226759 7.969690 0.078932 1.255959 19.248930 -1.447296 2.739903 -0.019743 -3.012193 2.352807 8.757052 -0.552533 -2.080931 -7.105283 -3.933829 42.245861 -85.381241 -32.610183 -3.496616 1.795711 -32.754482 -5.827667 10.368976 -0.712201 17.538774 -3.806295 -0.226185 124.202281 -83.906028 -146.666257 -1.822775 5.845518 16.100499 -13.318470 -60.268779 7.874900 -28.912999 72.090427 -29.558361 -3.283317 -5.858043 -1.941428 -0.339249 0.704450 -0.172688 0.662811 -62.583948 18.530967 41.499148 66.297579 34.702009 -17.073824 -10.578925 3.629019 -0.070756 -0.861018 -0.025541
-196.090931 57.375325 -62.587706 156.880854 -12.037425 0.417192 4.754743 8.477484 0.803877 0.267834 0.495414 -0.019086 0.440767 0.893906 0.015803 4.237628 8.003740 0.052840 1.267233 19.270559 -1.454477 2.767846 0.041003 -3.052197 2.394305 8.703383 -0.571494 -1.894859 -7.132150 -3.940967 42.768293 -85.426477 -33.253044 -3.469477 1.783956 -32.646951 -5.842747 10.359411 -0.610175 17.493034 -3.750273 -0.263617 124.680932 -83.737065 -147.103858 -1.800930 5.815023 16.149329 -13.338123 -60.242699 7.850251 -28.865238 72.103375 -29.523962 -3.264143 -5.846695 -1.951490 -0.349196 0.697389 -0.182112 0.702300 -62.538341 18.481109 41.486888 66.277109 34.678401 -17.086670 -10.565546 3.633231 -0.078726 -0.861950 -0.029021
-196.089256 57.371951 -62.575895 156.891237 -12.106587 0.431518 4.760535 8.510249 0.761623 0.266100 0.507986 -0.013887 0.460528 0.879310 -0.022486 4.230820 8.054375 0.059147 1.277451 19.280212 -1.445085 2.795465 0.088942 -3.095485 2.437334 8.644272 -0.589201 -1.730802 -7.176938 -3.960186 43.408874 -85.469700 -33.984944 -3.438218 1.765070 -32.527584 -5.860673 10.338685 -0.522733 17.453386 -3.699587 -0.288657 125.175186 -83.563366 -147.572560 -1.781902 5.789182 16.197698 -13.324692 -60.185425 7.806219 -28.845089 72.105426 -29.499829 -3.266431 -5.840195 -1.960229 -0.354458 0.694010 -0.185609 0.707974 -62.463613 18.471413 41.462918 66.262196 34.637285 -17.102533 -10.561983 3.634279 -0.071074 -0.854808 -0.027442
-196.087861 57.368473 -62.563767 156.905393 -12.173575 0.447247 4.758247 8.551073 0.725277 0.267518 0.512044 -0.015788 0.462930 0.886188 -0.025801 4.234562 8.086737 0.030693 1.285417 19.269786 -1.399101 2.836203 0.158142 -3.189298 2.480860 8.584230 -0.604995 -1.580401 -7.240984 -3.991561 44.111760 -85.510028 -34.752154 -3.407538 1.741276 -32.412236 -5.882819 10.314283 -0.449854 17.328178 -3.631814 -0.306886 126.015073 -83.381151 -148.306449 -1.765959 5.766654 16.237844 -13.309929 -60.130000 7.756482 -28.818939 72.109726 -29.477575 -3.244725 -5.840515 -1.948191 -0.364613 0.697280 -0.202009 0.718854 -62.391362 18.449757 41.436646 66.244992 34.594875 -17.106257 -10.558999 3.640198 -0.066838 -0.846014 -0.029425
-196.083121 57.366093 -62.555142 156.907882 -12.268570 0.455652 4.768217 8.619211 0.702959 0.264789 0.521470 -0.012165 0.469164 0.887741 -0.034442 4.237222 8.119205 0.004432 1.299768 19.289217 -1.418075 2.882262 0.198580 -3.232755 2.523521 8.524057 -0.616562 -1.436718 -7.320633 -4.035079 44.859492 -85.546279 -35.545451 -3.376253 1.716429 -32.298374 -5.900327 10.285662 -0.390510 17.272808 -3.617358 -0.308643 126.456473 -83.220050 -148.723727 -1.751455 5.746426 16.269018 -13.289054 -60.042803 7.709077 -28.788700 72.109431 -29.434267 -3.247829 -5.828649 -1.968860 -0.345889 0.689535 -0.198109 0.725626 -62.290409 18.454763 41.398842 66.239351 34.541568 -17.113148 -10.562571 3.647041 -0.060531 -0.832644 -0.030263
-196.080944 57.362298 -62.539602 156.914839 -12.319081 0.460164 4.767494 8.656577 0.691126 0.261410 0.528879 -0.007604 0.485153 0.878256 -0.053334 4.241167 8.151884 -0.018976 1.312912 19.307945 -1.444697 2.935711 0.245074 -3.282856 2.561860 8.463543 -0.623735 -1.299856 -7.411363 -4.088817 45.636658 -85.579632 -36.355673 -3.341217 1.691821 -32.168373 -5.933115 10.249787 -0.342071 17.258235 -3.629118 -0.300342 126.768862 -83.068437 -149.055321 -1.739183 5.728099 16.293709 -13.287698 -59.998275 7.683372 -28.754909 72.104978 -29.381861 -3.250287 -5.823997 -1.996516 -0.344794 0.692460 -0.183065 0.726309 -62.237932 18.452347 41.367547 66.222590 34.502146 -17.113120 -10.561049 3.651912 -0.044999 -0.816310 -0.032082
-196.080130 57.358561 -62.523780 156.934283 -12.365335 0.466703 4.754544 8.690421 0.675350 0.270179 0.520219 -0.019313 0.493960 0.884184 -0.054291 4.231731 8.175298 -0.017804 1.357238 19.374946 -1.557874 2.971457 0.254806 -3.279043 2.606101 8.414540 -0.650729 -1.171096 -7.511344 -4.149950 46.426960 -85.612053 -37.167951 -3.304413 1.669327 -32.023793 -5.955592 10.214780 -0.326029 17.242272 -3.659522 -0.281258 127.050645 -82.920989 -149.374989 -1.731205 5.712307 16.311234 -13.278229 -59.958503 7.645653 -28.742000 72.100651 -29.359915 -3.241563 -5.830654 -2.002707 -0.350376 0.705920 -0.182900 0.724147 -62.191287 18.435407 41.336506 66.202870 34.466805 -17.112978 -10.554557 3.652615 -0.067644 -0.808852 -0.036312
-196.079168 57.356358 -62.514295 156.971206 -12.447962 0.480075 4.736765 8.746139 0.645909 0.272077 0.524568 -0.020707 0.499974 0.893197 -0.056014 4.244842 8.214189 -0.047535 1.389396 19.404230 -1.598617 3.021327 0.288548 -3.325638 2.629278 8.348574 -0.637988 -1.047986 -7.620605 -4.218778 47.205338 -85.645046 -37.959863 -3.266110 1.650151 -31.875168 -5.993852 10.162755 -0.281636 17.224871 -3.710457 -0.250343 127.326728 -82.779750 -149.700785 -1.727824 5.694356 16.322794 -13.274697 -59.884202 7.581465 -28.705212 72.104791 -29.323986 -3.233106 -5.833697 -2.004815 -0.354359 0.710579 -0.187610 0.724298 -62.106471 18.395989 41.298549 66.184330 34.424730 -17.116921 -10.543288 3.656158 -0.048201 -0.805703 -0.036870
-196.079138 57.353566 -62.501412 156.997832 -12.508623 0.488319 4.761985 8.756745 0.611703 0.275138 0.533552 -0.023377 0.475462 0.922384 -0.038790 4.256521 8.254044 -0.074583 1.416987 19.421431 -1.625814 3.089428 0.333407 -3.406592 2.624251 8.298167 -0.605722 -0.900365 -7.757334 -4.315923 47.964509 -85.674311 -38.729204 -3.226091 1.632377 -31.719831 -6.027121 10.116701 -0.248037 17.198518 -3.793083 -0.212670 127.643022 -82.646247 -150.069827 -1.726214 5.671528 16.329253 -13.281859 -59.831827 7.538437 -28.676148 72.103396 -29.287392 -3.218481 -5.827070 -2.016684 -0.357518 0.711310 -0.193884 0.717372 -62.044071 18.375522 41.262578 66.167288 34.381920 -17.121034 -10.536938 3.664911 -0.058502 -0.799691 -0.044963
-196.077391 57.351600 -62.491240 156.996306 -12.586974 0.494299 4.790407 8.812451 0.602536 0.276689 0.537904 -0.024439 0.478137 0.929807 -0.040667 4.262443 8.287359 -0.088614 1.450947 19.444547 -1.670821 3.164491 0.379539 -3.498536 2.621192 8.254196 -0.586967 -0.754683 -7.900207 -4.414066 48.749888 -85.696305 -39.525153 -3.188941 1.616068 -31.552747 -6.059765 10.040250 -0.266714 17.164840 -3.869315 -0.129091 128.051885 -82.520121 -150.531552 -1.723705 5.650006 16.332165 -13.267053 -59.760120 7.503122 -28.634354 72.105713 -29.235066 -3.215046 -5.823568 -2.029763 -0.348446 0.712395 -0.195439 0.721542 -61.966768 18.371477 41.254486 66.163793 34.370383 -17.109003 -10.545675 3.676051 -0.086407 -0.796884 -0.056688
-196.076328 57.349164 -62.478722 157.007229 -12.648083 0.490274 4.807303 8.849697 0.599809 0.278416 0.542215 -0.025398 0.481090 0.937116 -0.042337 4.271051 8.319459 -0.100406 1.487660 19.467842 -1.720932 3.245988 0.426426 -3.600516 2.639711 8.197784 -0.582526 -0.637840 -8.032035 -4.495918 49.594220 -85.714967 -40.378398 -3.154875 1.603112 -31.373795 -6.083841 9.986865 -0.258372 17.118978 -3.971315 -0.076768 128.532380 -82.402198 -151.069127 -1.720724 5.633115 16.331133 -13.281623 -59.704014 7.482668 -28.610845 72.105408 -29.182250 -3.220990 -5.818040 -2.068063 -0.322519 0.709285 -0.185517 0.698142 -61.906728 18.381562 41.225880 66.154195 34.340538 -17.093430 -10.543947 3.678996 -0.060639 -0.793407 -0.054382
-196.078405 57.346073 -62.464162 157.047570 -12.687002 0.486716 4.797790 8.864766 0.589641 0.280221 0.546574 -0.026225 0.484061 0.944432 -0.043768 4.279993 8.351450 -0.109972 1.526805 19.489624 -1.776197 3.333510 0.470903 -3.712647 2.698511 8.121785 -0.587352 -0.571761 -8.145207 -4.562256 50.527966 -85.733286 -41.319293 -3.118966 1.599387 -31.182724 -6.106667 9.928730 -0.254626 17.068522 -4.081326 -0.018568 129.031617 -82.291557 -151.631324 -1.718174 5.620026 16.321502 -13.323277 -59.671410 7.456443 -28.565985 72.111917 -29.127109 -3.194004 -5.816576 -2.070284 -0.335824 0.709151 -0.196845 0.646101 -61.868967 18.378141 41.170317 66.130698 34.297634 -17.094205 -10.520160 3.656464 -0.041184 -0.809746 -0.038414
